<svg width="80" height="68" viewBox="0 0 80 68" fill="none" xmlns="http://www.w3.org/2000/svg">
<path d="M49.0322 61.9355C66.1353 61.9355 80 48.0708 80 30.9678C80 13.8648 66.1353 7.56879e-05 49.0323 7.49403e-05C31.9293 7.41927e-05 18.0645 13.8648 18.0645 30.9678L18.0645 61.9355L49.0322 61.9355Z" fill="#EFEFF6"/>
<path opacity="0.3" d="M17.6344 7.74219C7.8952 7.74219 -3.4511e-07 15.6374 -7.70824e-07 25.3766C-1.19654e-06 35.1158 7.89519 43.011 17.6344 43.011C27.3736 43.011 35.2688 35.1158 35.2688 25.3766L35.2688 7.74219L17.6344 7.74219Z" fill="#F7B112"/>
<path d="M33.2975 48.4173C30.0081 48.5714 25.7276 50.1378 24.0103 56.7253C23.9943 56.7735 23.997 56.8262 24.0178 56.8725C24.0387 56.9188 24.0761 56.9552 24.1223 56.9742C24.1644 56.9991 24.2143 57.0063 24.2614 56.9944C24.3086 56.9825 24.3494 56.9523 24.3752 56.9103C26.5623 53.8906 30.3399 50.2032 35.9155 49.7819C40.2574 49.4541 41.0213 47.1225 41.9885 44.1708C42.8344 41.5891 43.7931 38.6631 47.2695 36.5115C47.5222 36.3546 47.8081 36.2621 48.1032 36.2417C48.3983 36.2214 48.6939 36.274 48.9649 36.3949C49.5592 36.6619 50.7265 37.1044 51.8587 37.0959C55.2768 37.0583 57.4748 34.1173 58.1971 33.1512C59.4473 31.4781 60.4276 29.2226 60.8187 27.1177C61.2497 24.7969 60.9064 22.9603 59.852 21.9463C59.1214 21.2438 58.1509 21 57.1569 21C56.2832 21.0185 55.4165 21.1639 54.5828 21.4316C52.3876 22.102 50.2702 23.3871 49.0206 24.3663C47.7937 25.3277 44.535 27.8813 44.8562 31.2391C44.8963 31.6586 45.0752 32.2196 45.3733 32.8609C45.5626 33.2737 45.6012 33.7418 45.4824 34.181C45.3635 34.6203 45.0949 35.0017 44.725 35.2567C41.9004 37.1847 41.0832 39.715 40.2929 42.1625C39.2933 45.2572 38.3491 48.1807 33.2975 48.4173ZM54.1121 23.0505C54.2456 22.9974 54.3795 22.946 54.514 22.8963C54.6418 22.8491 54.7827 22.8557 54.9057 22.9146C55.0288 22.9735 55.1238 23.08 55.1701 23.2105C55.2163 23.341 55.2098 23.4848 55.1521 23.6105C55.0944 23.7361 54.9902 23.8332 54.8624 23.8804C54.7363 23.9269 54.6105 23.9752 54.4852 24.0252C54.3586 24.0757 54.2176 24.0727 54.0931 24.017C53.9686 23.9613 53.871 23.8574 53.8215 23.7282C53.7721 23.5989 53.775 23.4549 53.8295 23.3278C53.8841 23.2008 53.9858 23.101 54.1124 23.0505H54.1121ZM48.0286 26.8976C48.57 26.4004 49.0614 26.0152 49.4203 25.7341C50.2667 25.08 51.1644 24.4982 52.1042 23.9944C52.2243 23.9295 52.3648 23.916 52.4946 23.9568C52.6245 23.9976 52.7332 24.0894 52.7968 24.212C52.8604 24.3346 52.8736 24.478 52.8337 24.6107C52.7937 24.7433 52.7038 24.8543 52.5837 24.9192C51.6953 25.3964 50.8462 25.9463 50.0448 26.5636C49.6987 26.8348 49.2256 27.2057 48.7139 27.6756C48.6639 27.7215 48.6055 27.757 48.5421 27.7799C48.4786 27.8028 48.4114 27.8127 48.3442 27.8091C48.277 27.8054 48.2112 27.7883 48.1505 27.7587C48.0897 27.7291 48.0353 27.6876 47.9903 27.6365C47.9453 27.5854 47.9106 27.5258 47.8882 27.461C47.8658 27.3962 47.8561 27.3276 47.8596 27.259C47.8632 27.1904 47.8799 27.1231 47.9089 27.0611C47.9379 26.9991 47.9786 26.9436 48.0286 26.8976Z" fill="#17134C"/>
<path d="M25.587 37.0021C27.9683 36.8132 28.375 35.5283 28.9378 33.75C29.4411 32.1598 30.0116 30.3573 32.097 29.0168C32.2739 28.9016 32.4773 28.8333 32.6881 28.8183C32.8988 28.8033 33.1098 28.8422 33.3013 28.9312C33.6298 29.0843 34.2761 29.3385 34.8851 29.3316C36.7617 29.3083 37.9954 27.596 38.4008 27.0334C39.8582 25.011 40.6078 21.7179 39.3911 20.5028C38.1095 19.2237 35.0497 20.631 33.3854 21.9851C32.6928 22.5486 30.8529 24.0457 31.0293 25.9775C31.0771 26.2976 31.1732 26.6086 31.3143 26.9C31.4443 27.1873 31.471 27.5107 31.3899 27.8154C31.3088 28.1201 31.1249 28.3875 30.8692 28.5725C29.29 29.692 28.7966 31.0693 28.3193 32.4011C27.705 34.1154 27.0698 35.8882 23.9702 36.0418C21.5387 36.1633 19.9097 37.7857 19 41C20.3337 39.227 22.494 37.2474 25.587 37.0021Z" fill="#17134C"/>
<path d="M48.4657 55.5836C46.816 56.6945 46.2837 58.0833 45.7687 59.4268C45.1061 61.1563 44.4209 62.9446 41.2162 63.0505C38.7016 63.1339 36.9921 64.754 36 68C37.4068 66.223 39.6707 64.2494 42.8705 64.0502C45.3337 63.8968 45.7748 62.5998 46.3853 60.8046C46.9311 59.1998 47.5499 57.38 49.7261 56.0534C49.9108 55.9393 50.1221 55.8732 50.34 55.8614C50.558 55.8496 50.7755 55.8924 50.9719 55.9859C51.3087 56.1462 51.9683 56.4154 52.6023 56.4175H52.6129C54.546 56.4175 55.8442 54.7057 56.2713 54.1424C57.8099 52.114 58.6383 48.785 57.401 47.5333C57.0287 47.1565 56.5027 47 55.9008 47C54.396 47 52.4161 47.9784 51.1723 48.9407C50.4475 49.5013 48.5223 50.9907 48.673 52.9532C48.7172 53.2787 48.8114 53.5957 48.9525 53.8936C49.0823 54.1871 49.1048 54.5157 49.0161 54.8236C48.9274 55.1315 48.7329 55.4 48.4657 55.5836Z" fill="#17134C"/>
</svg>
